<?xml version="1.0" encoding="UTF-8" standalone="no"?>
<!DOCTYPE svg PUBLIC "-//W3C//DTD SVG 1.1//EN" "http://www.w3.org/Graphics/SVG/1.1/DTD/svg11.dtd">
<svg width="100%" height="100%" viewBox="0 0 365 363" version="1.1" xmlns="http://www.w3.org/2000/svg" xmlns:xlink="http://www.w3.org/1999/xlink" xml:space="preserve" xmlns:serif="http://www.serif.com/" style="fill-rule:evenodd;clip-rule:evenodd;stroke-linejoin:round;stroke-miterlimit:2;">
    <g transform="matrix(1,0,0,1,-70.3317,-63.3097)">
        <g transform="matrix(0.828208,-0.143995,0.161365,0.928117,-380.85,-205.785)">
            <path d="M842.409,446.785C842.409,430.202 827.322,416.739 808.738,416.739L491.9,416.739C473.316,416.739 458.229,430.202 458.229,446.785L458.229,726.216C458.229,742.799 473.316,756.262 491.9,756.262L808.738,756.262C827.322,756.262 842.409,742.799 842.409,726.216L842.409,446.785Z" style="fill:url(#_Linear1);"/>
        </g>
        <g transform="matrix(0.672909,-0.11703,0.128833,0.741236,-235.553,-150.54)">
            <path d="M842.409,446.785C842.409,430.202 827.583,416.739 809.322,416.739L491.316,416.739C473.054,416.739 458.229,430.202 458.229,446.785L458.229,726.216C458.229,742.799 473.054,756.262 491.316,756.262L809.322,756.262C827.583,756.262 842.409,742.799 842.409,726.216L842.409,446.785Z" style="fill:rgb(0,88,95);"/>
        </g>
        <g transform="matrix(0.769231,0,0,0.769231,-250,-250)">
            <g transform="matrix(1,0,0,1,49.0518,37.3728)">
                <path d="M629.846,429.161C629.758,429.167 629.67,429.173 629.583,429.18C549.957,434.867 489.928,504.131 495.616,583.757C501.303,663.383 570.567,723.412 650.193,717.724C650.281,717.718 650.368,717.712 650.456,717.706C730.082,712.018 790.111,642.754 784.423,563.128C778.736,483.502 709.472,423.473 629.846,429.161Z" style="fill:white;"/>
            </g>
        </g>
        <g id="E-Icon-1c-Black-Circle" serif:id="E Icon 1c Black Circle" transform="matrix(1.88092,0,0,1.88151,278.754,210.527)">
            <g transform="matrix(1,0,0,1,-64.5,-64.5)">
                <g transform="matrix(1,0,0,1,0.600178,0.928106)">
                    <g id="Final-Asset-Sheet">
                        <g id="Ember-Logos">
                            <g id="E-Icon-1c-Black-Circle1" serif:id="E-Icon-1c-Black-Circle">
                                <path id="Combined-Shape" d="M64,-0C99.346,-0 128,28.654 128,64C128,99.346 99.346,128 64,128C28.654,128 0,99.346 0,64C-0,28.654 28.654,-0 64,-0ZM64.617,82.065C53.409,82.347 54.589,74.984 54.589,74.984C54.589,74.984 95.51,60.98 84.352,33.318C79.338,26.201 73.511,23.965 65.265,24.128C57.016,24.288 46.859,29.318 40.227,44.202C37.063,51.305 35.989,58.034 35.343,63.133C35.343,63.133 28.096,64.589 24.213,61.361C20.334,58.128 18.293,61.361 18.293,61.361C18.293,61.361 11.609,69.18 18.244,71.772C24.877,74.362 35.206,74.886 35.206,74.886L35.201,74.886C36.152,81.773 38.491,88.394 46.995,93.925C61.254,103.202 82.414,93.404 82.414,93.404C95.096,88.103 103.52,79.897 107.11,75.9C108.267,74.608 108.228,72.659 107.025,71.41L102.895,67.119C101.701,65.877 99.759,65.762 98.428,66.855C92.911,71.373 78.41,82.065 64.617,82.065ZM52.647,62.493C53.134,43.245 65.749,34.833 70.118,39.043C74.487,43.245 72.866,52.302 64.617,57.963C56.371,63.627 52.647,62.493 52.647,62.493Z" style="fill:rgb(0,88,95);fill-rule:nonzero;"/>
                            </g>
                        </g>
                    </g>
                </g>
            </g>
        </g>
    </g>
    <defs>
        <linearGradient id="_Linear1" x1="0" y1="0" x2="1" y2="0" gradientUnits="userSpaceOnUse" gradientTransform="matrix(-472.25,-240.887,269.946,-421.414,838.281,756.536)"><stop offset="0" style="stop-color:rgb(8,48,51);stop-opacity:1"/><stop offset="0.36" style="stop-color:rgb(13,56,60);stop-opacity:1"/><stop offset="0.48" style="stop-color:rgb(26,78,82);stop-opacity:1"/><stop offset="0.57" style="stop-color:rgb(41,102,107);stop-opacity:1"/><stop offset="1" style="stop-color:rgb(8,88,94);stop-opacity:1"/></linearGradient>
    </defs>
</svg>
